# xmcd
#
# Track frame offsets:
#	150
#	26718
#	55623
#	79505
#	102225
#	131822
#	164875
#	189232
#	215521
#	248837
#
# Disc length: 4439
#
# Revision: 1
# Processed by: cddbd v1.5.1PL0 Copyright (c) Steve Scherf et al.
# Submitted via: ExactAudioCopy v0.95a5
# Normalized: r0:TRMNUM
#
DISCID=8611550a
DTITLE=Clemens Neufeld - Bye Bye Berlin
DYEAR=2003
DGENRE=TECHNO
TTITLE0=Ich Pack Es Nicht
TTITLE1=Blue Jean
TTITLE2=Rock Eins
TTITLE3=Mad Makossa
TTITLE4=Restricted Rhythm
TTITLE5=Down The House
TTITLE6=Gotta Love
TTITLE7=Take You Higher
TTITLE8=Dont think Feel!
TTITLE9=Permanente and Bye Bye Berlin(HOTZENPLOTZ(Hidden Track))
EXTD=
EXTT0=
EXTT1=
EXTT2=
EXTT3=
EXTT4=
EXTT5=
EXTT6=
EXTT7=
EXTT8=
EXTT9=
PLAYORDER=
